<svg xmlns="http://www.w3.org/2000/svg" width="32" height="32" viewBox="0 0 32 32">
  <g id="Group_1000004866" data-name="Group 1000004866" transform="translate(-314 -4414)">
    <g id="Frame_25" data-name="Frame 25" transform="translate(314 4414)">
      <rect id="Frame_25-2" data-name="Frame 25" width="32" height="32" fill="#fff"/>
      <path id="https:_www.flaticon.com_free-icon_intelligence_2252188_related_id_2252188_origin_search" data-name="https://www.flaticon.com/free-icon/intelligence_2252188?related_id=2252188&amp;origin=search" d="M7.449.565A11.159,11.159,0,0,1,18.877,3.231a11.019,11.019,0,0,1,3.014,5.581,14.015,14.015,0,0,0,2.169,4.982l.829,1.232a.661.661,0,0,1-.55,1.029H22.115v3.358a1.785,1.785,0,0,1-1.784,1.78H18.725a.1.1,0,0,0-.1.1V27H8.684l-.042-.375a9.051,9.051,0,0,0-.943-3.18A9.162,9.162,0,0,0,4.777,20.12,11.059,11.059,0,0,1,7.449.565ZM.846,11.034a10.192,10.192,0,0,0,4.414,8.394,10.038,10.038,0,0,1,3.188,3.628,9.916,9.916,0,0,1,.985,3.1h8.35V21.284a.943.943,0,0,1,.943-.941h1.607a.938.938,0,0,0,.939-.936V15.864a.66.66,0,0,1,.66-.658H24l-.638-.945a14.887,14.887,0,0,1-2.3-5.285,10.158,10.158,0,0,0-2.782-5.15A10.333,10.333,0,0,0,7.7,1.371,10.122,10.122,0,0,0,.846,11.034Z" transform="translate(3 3)" fill="#191919" stroke="#191919" stroke-width="0.5"/>
      <path id="https:_www.flaticon.com_free-icon_intelligence_2252188_related_id_2252188_origin_search-2" data-name="https://www.flaticon.com/free-icon/intelligence_2252188?related_id=2252188&amp;origin=search" d="M3.6,12.367V9.659l1.839-.371a5.954,5.954,0,0,1,.486-1.177L4.891,6.551,6.811,4.631,8.375,5.665A6.053,6.053,0,0,1,9.55,5.18l.372-1.835h2.714l.372,1.835a6.028,6.028,0,0,1,1.18.485l1.564-1.033,1.919,1.915L16.64,8.107a6.061,6.061,0,0,1,.486,1.177l1.839.371v2.708l-1.839.371a5.954,5.954,0,0,1-.486,1.177l1.032,1.561-1.919,1.915-1.564-1.033a6.3,6.3,0,0,1-1.18.485l-.372,1.835-2.714,0L9.55,16.839a6.053,6.053,0,0,1-1.175-.485L6.811,17.387,4.891,15.472l1.032-1.556a6.171,6.171,0,0,1-.486-1.177Zm.85-.7,1.678.342.063.262a5.339,5.339,0,0,0,.6,1.438l.135.228-.943,1.422.943.941,1.425-.945.228.135a5.131,5.131,0,0,0,1.437.595l.262.063.342,1.675h1.332l.342-1.67.258-.063a5.17,5.17,0,0,0,1.442-.595l.228-.139,1.429.945.943-.941-.943-1.422.135-.228a5.207,5.207,0,0,0,.6-1.438l.063-.257,1.678-.342V10.343L16.442,10l-.063-.257a5.339,5.339,0,0,0-.6-1.438l-.135-.228.943-1.422-.943-.941-1.429.945-.228-.139a5.3,5.3,0,0,0-1.442-.595l-.258-.063-.342-1.675H10.616l-.342,1.679-.262.063a5.4,5.4,0,0,0-1.437.595l-.228.135L6.921,5.715l-.943.941.943,1.422-.135.228a5.081,5.081,0,0,0-.6,1.438l-.063.262-1.678.342Z" transform="translate(3 3)" fill="#191919" stroke="#191919" stroke-width="0.5"/>
      <path id="https:_www.flaticon.com_free-icon_intelligence_2252188_related_id_2252188_origin_search-3" data-name="https://www.flaticon.com/free-icon/intelligence_2252188?related_id=2252188&amp;origin=search" d="M8.155,11.009a3.124,3.124,0,1,1,3.124,3.117A3.127,3.127,0,0,1,8.155,11.009Zm.846,0A2.279,2.279,0,1,0,11.28,8.736,2.28,2.28,0,0,0,9,11.009Z" transform="translate(3 3)" fill="#191919" stroke="#191919" stroke-width="0.5"/>
    </g>
  </g>
</svg>
