<svg id="Frame_23" data-name="Frame 23" xmlns="http://www.w3.org/2000/svg" width="32" height="32" viewBox="0 0 32 32">
  <rect id="Frame_23-2" data-name="Frame 23" width="32" height="32" fill="#fff"/>
  <path id="https:_www.flaticon.com_free-icon_motivation_4835292_related_id_4835292" data-name="https://www.flaticon.com/free-icon/motivation_4835292?related_id=4835292" d="M16.193,16.94a7.748,7.748,0,0,1-5.637,2.443.4.4,0,0,1,0-.8,7.008,7.008,0,0,0,5.1-2.209,6.8,6.8,0,0,0,1.871-4.726.381.381,0,1,1,.762,0,7.609,7.609,0,0,1-2.095,5.29Z" transform="translate(3 4)" fill="#191919" stroke="#191919" stroke-width="0.5"/>
  <path id="https:_www.flaticon.com_free-icon_motivation_4835292_related_id_4835292-2" data-name="https://www.flaticon.com/free-icon/motivation_4835292?related_id=4835292" d="M.435,11H2a.4.4,0,0,1,0,.8H.762V24.2H4.206V11.8H3.775a.4.4,0,0,1,0-.8H6.636a.446.446,0,0,1,.435.455v.279H7.52a1.721,1.721,0,0,0,1.122-.429,7.281,7.281,0,0,1,2.252-1.334,3.615,3.615,0,0,0,2.144-2.309L15.381.309A.434.434,0,0,1,15.791,0a3.278,3.278,0,0,1,3.2,3.346V5.014a.381.381,0,1,1-.762,0V3.346a2.511,2.511,0,0,0-2.2-2.537L13.76,7.915a4.4,4.4,0,0,1-2.613,2.809,6.529,6.529,0,0,0-2.02,1.2,2.464,2.464,0,0,1-1.607.612H7.071v5.54a.381.381,0,1,1-.762,0V11.8H4.968V22.735H6.31v-2.8a.381.381,0,1,1,.762,0V22H7.52a2.464,2.464,0,0,1,1.608.612A6.463,6.463,0,0,0,13.35,24.2h6.487a1.648,1.648,0,0,1-.208-.8V22.138a1.631,1.631,0,0,1,.521-1.2,1.63,1.63,0,0,1-.522-1.2V18.47a1.63,1.63,0,0,1,.522-1.2,1.63,1.63,0,0,1-.522-1.2V14.8a1.63,1.63,0,0,1,.522-1.2,1.63,1.63,0,0,1-.522-1.2V10.842a1.351,1.351,0,0,1,.108-.532,1.842,1.842,0,0,1-1.51-1.841v-1.6a.381.381,0,1,1,.762,0v1.6a1.045,1.045,0,0,0,1.019,1.066h4.461A1.569,1.569,0,0,1,26,11.136V12.4a1.63,1.63,0,0,1-.521,1.2A1.63,1.63,0,0,1,26,14.8v1.261a1.63,1.63,0,0,1-.521,1.2A1.63,1.63,0,0,1,26,18.47v1.261a1.6,1.6,0,0,1-.975,1.492,1.644,1.644,0,0,1,.274.914V23.4A1.569,1.569,0,0,1,23.768,25H13.35a7.206,7.206,0,0,1-4.708-1.771A1.721,1.721,0,0,0,7.52,22.8H7.071v.277a.446.446,0,0,1-.435.455H4.968v1.012A.446.446,0,0,1,4.533,25H.435A.446.446,0,0,1,0,24.544V11.456A.446.446,0,0,1,.435,11Zm24.8,1.4V11.136a.788.788,0,0,0-.769-.8H20.877a.5.5,0,0,0-.486.511V12.4a.788.788,0,0,0,.769.8h3.309a.788.788,0,0,0,.769-.8Zm0,3.667V14.8a.788.788,0,0,0-.769-.8H21.16a.788.788,0,0,0-.769.8v1.261a.788.788,0,0,0,.769.8h3.309a.788.788,0,0,0,.769-.8Zm0,2.406a.788.788,0,0,0-.769-.8H21.16a.788.788,0,0,0-.769.8v1.261a.788.788,0,0,0,.769.8h3.309a.788.788,0,0,0,.769-.8Zm-.7,4.928V22.137a.788.788,0,0,0-.769-.8H21.161a.788.788,0,0,0-.769.8V23.4a.788.788,0,0,0,.769.8h2.608a.788.788,0,0,0,.769-.8Z" transform="translate(3 4)" fill="#191919" stroke="#191919" stroke-width="0.5"/>
  <path id="https:_www.flaticon.com_free-icon_motivation_4835292_related_id_4835292-3" data-name="https://www.flaticon.com/free-icon/motivation_4835292?related_id=4835292" d="M2.484,23.532a1.133,1.133,0,0,1,0-2.264,1.133,1.133,0,0,1,0,2.264Zm0-1.467a.335.335,0,1,0,.32.335A.328.328,0,0,0,2.484,22.065Z" transform="translate(3 4)" fill="#191919" stroke="#191919" stroke-width="0.5"/>
  <path id="https:_www.flaticon.com_free-icon_motivation_4835292_related_id_4835292-4" data-name="https://www.flaticon.com/free-icon/motivation_4835292?related_id=4835292" d="M25.057,4.475l-.446.233a2.723,2.723,0,0,0-1.182,1.236l-.223.467a.429.429,0,0,1-.782,0L22.2,5.944a2.724,2.724,0,0,0-1.182-1.236l-.446-.233a.467.467,0,0,1,0-.819l.446-.233A2.723,2.723,0,0,0,22.2,2.186l.223-.467a.429.429,0,0,1,.782,0l.223.467a2.724,2.724,0,0,0,1.182,1.236l.446.233a.467.467,0,0,1,0,.819Zm-2.242-1.8a3.514,3.514,0,0,1-1.328,1.39,3.514,3.514,0,0,1,1.328,1.39,3.514,3.514,0,0,1,1.328-1.39,3.514,3.514,0,0,1-1.328-1.39Z" transform="translate(3 4)" fill="#191919" stroke="#191919" stroke-width="0.5"/>
  <path id="https:_www.flaticon.com_free-icon_motivation_4835292_related_id_4835292-5" data-name="https://www.flaticon.com/free-icon/motivation_4835292?related_id=4835292" d="M11.742,7.033l-.372.194a2.2,2.2,0,0,0-.956,1l-.186.389a.42.42,0,0,1-.766,0l-.186-.389a2.2,2.2,0,0,0-.956-1l-.372-.194a.457.457,0,0,1,0-.8l.372-.194a2.2,2.2,0,0,0,.956-1l.186-.389a.42.42,0,0,1,.766,0l.186.389a2.2,2.2,0,0,0,.956,1l.372.194a.457.457,0,0,1,0,.8Zm-1.9-1.426a3,3,0,0,1-.981,1.026,3,3,0,0,1,.981,1.026,3,3,0,0,1,.981-1.026A3,3,0,0,1,9.845,5.606Z" transform="translate(3 4)" fill="#191919" stroke="#191919" stroke-width="0.5"/>
</svg>
