<svg id="Icon" xmlns="http://www.w3.org/2000/svg" width="40" height="40" viewBox="0 0 40 40">
  <g id="Frame_3" data-name="Frame 3">
    <rect id="Frame_3-2" data-name="Frame 3" width="40" height="40" fill="none"/>
    <path id="https:_www.flaticon.com_free-icon_idea_554745_related_id_554745" data-name="https://www.flaticon.com/free-icon/idea_554745?related_id=554745" d="M28.952,17.215a11.08,11.08,0,0,1-1.581,5.706,11.429,11.429,0,0,1-4.145,4.037,2.89,2.89,0,0,0-1.531,2.5v4.412a1.763,1.763,0,0,1-1.775,1.747H19.88v.633A1.763,1.763,0,0,1,18.1,38H16.9a1.763,1.763,0,0,1-1.775-1.747V35.62h-.039a1.763,1.763,0,0,1-1.775-1.747V29.367A2.722,2.722,0,0,0,11.846,27,11.382,11.382,0,0,1,7.42,22.555,11.093,11.093,0,0,1,9.3,9.361a11.564,11.564,0,0,1,15.832-.543,11.2,11.2,0,0,1,3.818,8.4ZM18.749,35.62h-2.5v.633a.639.639,0,0,0,.644.633H18.1a.639.639,0,0,0,.644-.633Zm1.814-4.759H14.437v1.266H18.1a.557.557,0,1,1,0,1.113H14.437v.633a.639.639,0,0,0,.644.633h4.838a.639.639,0,0,0,.644-.633V33.24h-.039a.557.557,0,1,1,0-1.113h.039Zm3.495-5.822a1.854,1.854,0,0,0-.362-.209l-1.569-.686a8.544,8.544,0,0,1-9.255,0L11.3,24.83a1.864,1.864,0,0,0-.361.209,10.408,10.408,0,0,0,1.461.989,3.869,3.869,0,0,1,2.032,3.339v.381h6.126v-.286a3.988,3.988,0,0,1,2.1-3.468,10.37,10.37,0,0,0,1.4-.954Zm-9.2-8.73a3.351,3.351,0,0,1-1.028.656v.25a3.668,3.668,0,0,0,7.335,0V16.209c-1.561.185-4.125.153-5.882-1.575a.55.55,0,0,1,0-.787.572.572,0,0,1,.8,0c.573.564,2.273,1.8,5.661,1.146a.036.036,0,0,0,.025-.037v-.121A3.642,3.642,0,0,0,18.1,11.227H16.9a3.642,3.642,0,0,0-3.668,3.608v1.1a.111.111,0,0,0,.01.05l.015,0a2.041,2.041,0,0,0,.84-.494.572.572,0,0,1,.8.031.55.55,0,0,1-.032.787Zm-.268,7.084-.449.2a7.41,7.41,0,0,0,6.714,0l-.449-.2a1.747,1.747,0,0,1-1.054-1.6V21.57a4.869,4.869,0,0,1-3.707,0V21.8a1.747,1.747,0,0,1-1.054,1.6ZM27.82,17.215A10.1,10.1,0,0,0,24.38,9.647a10.3,10.3,0,0,0-6.865-2.585,11.027,11.027,0,0,0-1.2.066,10.337,10.337,0,0,0-6.2,3.009,9.993,9.993,0,0,0-1.7,11.888A10.174,10.174,0,0,0,10.1,24.278a3,3,0,0,1,.744-.466l3.288-1.438a.633.633,0,0,0,.382-.579v-.888A4.686,4.686,0,0,1,12.7,17.215v-.246a1.113,1.113,0,0,1-.153-.1,1.16,1.16,0,0,1-.452-.935v-1.1a4.766,4.766,0,0,1,4.8-4.721H18.1a4.766,4.766,0,0,1,4.8,4.721v.121a1.151,1.151,0,0,1-.6,1.008v1.25a4.686,4.686,0,0,1-1.814,3.693V21.8a.633.633,0,0,0,.382.579l3.288,1.438a3.007,3.007,0,0,1,.742.466,10.2,10.2,0,0,0,1.5-1.924,9.981,9.981,0,0,0,1.423-5.139Z" transform="translate(3 1)" fill="#191919" stroke="#191919" stroke-width="1"/>
    <path id="https:_www.flaticon.com_free-icon_idea_554745_related_id_554745-2" data-name="https://www.flaticon.com/free-icon/idea_554745?related_id=554745" d="M18.066.557v3.57a.566.566,0,0,1-1.132,0V.557a.566.566,0,0,1,1.132,0Z" transform="translate(3 1)" fill="#191919" stroke="#191919" stroke-width="1"/>
    <path id="https:_www.flaticon.com_free-icon_idea_554745_related_id_554745-3" data-name="https://www.flaticon.com/free-icon/idea_554745?related_id=554745" d="M35,17.215a.561.561,0,0,1-.566.557H30.805a.557.557,0,1,1,0-1.113h3.629A.561.561,0,0,1,35,17.215Z" transform="translate(3 1)" fill="#191919" stroke="#191919" stroke-width="1"/>
    <path id="https:_www.flaticon.com_free-icon_idea_554745_related_id_554745-4" data-name="https://www.flaticon.com/free-icon/idea_554745?related_id=554745" d="M4.76,17.215a.561.561,0,0,1-.566.557H.566a.557.557,0,1,1,0-1.113H4.195A.561.561,0,0,1,4.76,17.215Z" transform="translate(3 1)" fill="#191919" stroke="#191919" stroke-width="1"/>
    <path id="https:_www.flaticon.com_free-icon_idea_554745_related_id_554745-5" data-name="https://www.flaticon.com/free-icon/idea_554745?related_id=554745" d="M29.874,5.829,27.308,8.354a.572.572,0,0,1-.8,0,.55.55,0,0,1,0-.787l2.566-2.524a.572.572,0,0,1,.8,0A.55.55,0,0,1,29.874,5.829Z" transform="translate(3 1)" fill="#191919" stroke="#191919" stroke-width="1"/>
    <path id="https:_www.flaticon.com_free-icon_idea_554745_related_id_554745-6" data-name="https://www.flaticon.com/free-icon/idea_554745?related_id=554745" d="M8.492,26.864,5.926,29.388a.572.572,0,0,1-.8,0,.55.55,0,0,1,0-.787l2.566-2.524a.572.572,0,0,1,.8,0,.55.55,0,0,1,0,.787Z" transform="translate(3 1)" fill="#191919" stroke="#191919" stroke-width="1"/>
    <path id="https:_www.flaticon.com_free-icon_idea_554745_related_id_554745-7" data-name="https://www.flaticon.com/free-icon/idea_554745?related_id=554745" d="M29.874,29.388a.572.572,0,0,1-.8,0l-2.566-2.524a.55.55,0,0,1,0-.787.572.572,0,0,1,.8,0L29.874,28.6a.55.55,0,0,1,0,.787Z" transform="translate(3 1)" fill="#191919" stroke="#191919" stroke-width="1"/>
    <path id="https:_www.flaticon.com_free-icon_idea_554745_related_id_554745-8" data-name="https://www.flaticon.com/free-icon/idea_554745?related_id=554745" d="M8.492,8.354a.572.572,0,0,1-.8,0L5.126,5.829a.55.55,0,0,1,0-.787.572.572,0,0,1,.8,0L8.492,7.566a.55.55,0,0,1,0,.787Z" transform="translate(3 1)" fill="#191919" stroke="#191919" stroke-width="1"/>
  </g>
</svg>
