<svg xmlns="http://www.w3.org/2000/svg" width="32" height="32" viewBox="0 0 32 32">
  <g id="Group_1000004868" data-name="Group 1000004868" transform="translate(-314 -4204)">
    <g id="Frame_23" data-name="Frame 23" transform="translate(314 4204)">
      <rect id="Frame_23-2" data-name="Frame 23" width="32" height="32" fill="#fff"/>
      <path id="https:_www.flaticon.com_free-icon_hexagon_5555876_related_id_5555876" data-name="https://www.flaticon.com/free-icon/hexagon_5555876?related_id=5555876" d="M25.914,9.438a1.862,1.862,0,0,1,0,1.134l-4.282,13.2A1.787,1.787,0,0,1,21,24.66,1.7,1.7,0,0,1,19.98,25H6.02A1.7,1.7,0,0,1,5,24.66a1.787,1.787,0,0,1-.631-.888L.09,10.572a1.863,1.863,0,0,1,0-1.135A1.808,1.808,0,0,1,.74,8.523L12,.33a1.679,1.679,0,0,1,2,0l11.26,8.194a1.808,1.808,0,0,1,.652.914ZM13.5,1.06c-.022-.015-.044-.021-.065-.033V8.249l3.987,2.876L24.809,9.3c-.017-.015-.029-.035-.047-.048Zm3.315,10.716L13,9.027,9.187,11.776l1.517,4.3H15.3ZM1.24,9.253c-.019.013-.03.033-.048.049L8.58,11.126l3.987-2.876V1.024c-.02.013-.044.018-.063.033ZM5.195,23.489c.005.017.016.029.023.045l4.7-7.079-1.578-4.47L.89,10.145a.929.929,0,0,0,.023.142Zm14.785.618a.787.787,0,0,0,.121-.02l-4.729-7.123H10.629L5.9,24.087a.786.786,0,0,0,.121.02Zm5.108-13.82a.93.93,0,0,0,.023-.142l-7.449,1.84-1.578,4.47,4.7,7.08c.006-.016.017-.029.022-.045l4.282-13.2Z" transform="translate(3 3)" fill="#191919" stroke="#191919" stroke-width="0.5"/>
    </g>
  </g>
</svg>
