<svg xmlns="http://www.w3.org/2000/svg" width="32" height="32" viewBox="0 0 32 32">
  <g id="Group_1000004867" data-name="Group 1000004867" transform="translate(-314 -4309)">
    <g id="Frame_24" data-name="Frame 24" transform="translate(314 4309)">
      <rect id="Frame_24-2" data-name="Frame 24" width="32" height="32" fill="#fff"/>
      <path id="https:_www.flaticon.com_free-icon_vector_681630_related_id_681630" data-name="https://www.flaticon.com/free-icon/vector_681630?related_id=681630" d="M14.535,18.57h0a.389.389,0,0,1-.4.382H8.69v2.285h.9a.382.382,0,1,1,0,.763h-1.3a.389.389,0,0,1-.4-.382V18.57a.389.389,0,0,1,.4-.382h.514L6.293,14.111a.37.37,0,0,1,0-.39L8.777,9.7a.4.4,0,0,1,.543-.133.374.374,0,0,1,.138.523L7.094,13.916l2.634,4.272h4.411a.389.389,0,0,1,.4.382Z" transform="translate(3 5)" fill="#191919" stroke="#191919" stroke-width="0.5"/>
      <path id="https:_www.flaticon.com_free-icon_vector_681630_related_id_681630-2" data-name="https://www.flaticon.com/free-icon/vector_681630?related_id=681630" d="M27,13.046v2.405a.389.389,0,0,1-.4.382h-2.5a.389.389,0,0,1-.4-.382V13.046a.389.389,0,0,1,.4-.382h.822a10.8,10.8,0,0,0-2.959-7.046A11.57,11.57,0,0,0,15.122,2.1v.684a.389.389,0,0,1-.4.382h-.582L20.663,13.72a.37.37,0,0,1,0,.39l-2.514,4.078h.514a.389.389,0,0,1,.4.382v3.048a.389.389,0,0,1-.4.382H11.179a.382.382,0,1,1,0-.763h7.088V18.951H15.723a.389.389,0,0,1-.4-.382.372.372,0,0,1,0-.039.391.391,0,0,1,.394-.343h1.5l2.635-4.272L13.874,4.224v7.065a1.54,1.54,0,0,1,1.188,1.478,1.585,1.585,0,0,1-3.167,0,1.54,1.54,0,0,1,1.188-1.478V4.224L10.274,8.769a.4.4,0,0,1-.543.133.374.374,0,0,1-.138-.523l3.219-5.21H12.23a.389.389,0,0,1-.4-.382V2.1A11.57,11.57,0,0,0,4.985,5.619a10.805,10.805,0,0,0-2.959,7.046h.866a.389.389,0,0,1,.4.382v2.405a.389.389,0,0,1-.4.382H.4a.389.389,0,0,1-.4-.382V13.046a.389.389,0,0,1,.4-.382h.838A11.551,11.551,0,0,1,4.4,5.106,12.273,12.273,0,0,1,8.969,2.052H3.229A1.637,1.637,0,0,1,1.643,3.218,1.616,1.616,0,0,1,0,1.635,1.616,1.616,0,0,1,1.643.051a1.633,1.633,0,0,1,1.6,1.238h8.587V.382A.389.389,0,0,1,12.23,0h2.5a.389.389,0,0,1,.4.382v.907h8.587a1.634,1.634,0,0,1,1.6-1.238,1.616,1.616,0,0,1,1.643,1.584,1.616,1.616,0,0,1-1.643,1.584,1.637,1.637,0,0,1-1.585-1.166H17.987a12.274,12.274,0,0,1,4.571,3.055,11.551,11.551,0,0,1,3.164,7.558H26.6a.389.389,0,0,1,.4.382ZM24.461,1.635a.852.852,0,0,0,1.7,0,.852.852,0,0,0-1.7,0Zm-21.966,0A.837.837,0,0,0,1.643.814a.837.837,0,0,0-.851.821.837.837,0,0,0,.851.821.837.837,0,0,0,.851-.821ZM.792,13.428V15.07H2.5V13.428ZM13.478,12a.764.764,0,1,0,.792.763A.779.779,0,0,0,13.478,12ZM14.33.763h-1.7V2.405h1.7V1.67h0ZM26.208,13.428H24.5V15.07h1.7Z" transform="translate(3 5)" fill="#191919" stroke="#191919" stroke-width="0.5"/>
    </g>
  </g>
</svg>
