<svg id="Icon" xmlns="http://www.w3.org/2000/svg" width="40.501" height="40" viewBox="0 0 40.501 40">
  <g id="Frame_3" data-name="Frame 3">
    <rect id="Frame_3-2" data-name="Frame 3" width="40" height="40" fill="none"/>
    <path id="https:_www.flaticon.com_free-icon_handshake_3439283_related_id_3439283" data-name="https://www.flaticon.com/free-icon/handshake_3439283?related_id=3439283" d="M9.75,7.108a.553.553,0,0,1-.208-.037.544.544,0,0,1-.178-.112.52.52,0,0,1-.013-.748.548.548,0,0,1,.38-.161,55.669,55.669,0,0,0,7.935-.656.533.533,0,0,1,.142-.01,3.958,3.958,0,0,1,1.855.571.53.53,0,0,1,.2.264.517.517,0,0,1,0,.326.529.529,0,0,1-.2.265.55.55,0,0,1-.317.1A.566.566,0,0,1,19,6.792,2.751,2.751,0,0,0,17.8,6.447a57.6,57.6,0,0,1-8.039.662Z" transform="translate(1 7)" fill="#f94d1c" stroke="#191919" stroke-width="1"/>
    <path id="https:_www.flaticon.com_free-icon_handshake_3439283_related_id_3439283-2" data-name="https://www.flaticon.com/free-icon/handshake_3439283?related_id=3439283" d="M29.564,19.69a2.22,2.22,0,0,1-1.286-.407l-.116-.079a.527.527,0,0,1-.064-.053l-6.376-4.483a.535.535,0,0,1-.149-.15.519.519,0,0,1,.014-.594.537.537,0,0,1,.156-.143.552.552,0,0,1,.608.026l.433.3,5.966,4.2a.508.508,0,0,1,.051.041l.1.07a1.149,1.149,0,0,0,.812.2,1.135,1.135,0,0,0,.727-.4,1.073,1.073,0,0,0,.22-.468,1.081,1.081,0,0,0-.386-1.049L21.749,9.912c-3.266,1.692-5.579.822-6.683.133a1.227,1.227,0,0,1-.43-.466,1.192,1.192,0,0,1,.061-1.21,1.236,1.236,0,0,1,.475-.423l4.881-2.531a2.722,2.722,0,0,1,2.041-.175l2.888.915a3.84,3.84,0,0,0,2.6-.091l1.258-.5a.554.554,0,0,1,.415,0,.543.543,0,0,1,.175.115.528.528,0,0,1,.117.172.518.518,0,0,1,0,.4.528.528,0,0,1-.118.171.543.543,0,0,1-.176.114l-1.257.5a4.938,4.938,0,0,1-3.349.118L21.76,6.246a1.605,1.605,0,0,0-1.2.106L15.676,8.884a.162.162,0,0,0-.067.057.156.156,0,0,0-.026.082A.142.142,0,0,0,15.6,9.1a.146.146,0,0,0,.054.058c1.137.71,3.09,1.23,5.886-.338a.552.552,0,0,1,.612.049l8.807,7.008a2.109,2.109,0,0,1,.767,2.066,2.136,2.136,0,0,1-.427.919,2.174,2.174,0,0,1-.768.611,2.228,2.228,0,0,1-.965.217Z" transform="translate(1 7)" fill="#f94d1c" stroke="#191919" stroke-width="1"/>
    <path id="https:_www.flaticon.com_free-icon_handshake_3439283_related_id_3439283-3" data-name="https://www.flaticon.com/free-icon/handshake_3439283?related_id=3439283" d="M27.323,22.142a2.245,2.245,0,0,1-1.281-.4l-5.855-4.057a.527.527,0,0,1-.214-.342.519.519,0,0,1,.093-.39.543.543,0,0,1,.346-.215.552.552,0,0,1,.4.084l5.855,4.056a1.16,1.16,0,0,0,.832.162,1.141,1.141,0,0,0,.715-.446,1.091,1.091,0,0,0,.2-.805,1.105,1.105,0,0,0-.426-.716l-5.836-4.107a.526.526,0,0,1-.2-.341.519.519,0,0,1,.1-.379.543.543,0,0,1,.337-.211.553.553,0,0,1,.393.073l5.837,4.107a2.172,2.172,0,0,1,.809,1.083,2.12,2.12,0,0,1,0,1.34,2.172,2.172,0,0,1-.806,1.085,2.257,2.257,0,0,1-1.305.416Z" transform="translate(1 7)" fill="#f94d1c" stroke="#191919" stroke-width="1"/>
    <path id="https:_www.flaticon.com_free-icon_handshake_3439283_related_id_3439283-4" data-name="https://www.flaticon.com/free-icon/handshake_3439283?related_id=3439283" d="M24.795,24.261a2.171,2.171,0,0,1-1.219-.374l-5.247-3.549A.528.528,0,0,1,18.1,20a.519.519,0,0,1,.088-.4.543.543,0,0,1,.349-.219.552.552,0,0,1,.405.086l5.247,3.549a1.08,1.08,0,0,0,.382.162,1.088,1.088,0,0,0,.8-.143,1.056,1.056,0,0,0,.3-.283,1.025,1.025,0,0,0,.171-.772,1.043,1.043,0,0,0-.431-.669L20.2,17.695a.535.535,0,0,1-.149-.149.519.519,0,0,1,.013-.593.537.537,0,0,1,.156-.143.552.552,0,0,1,.607.023l5.222,3.616a2.1,2.1,0,0,1,.87,1.348,2.067,2.067,0,0,1-.345,1.557,2.113,2.113,0,0,1-.6.571,2.165,2.165,0,0,1-.78.3,2.218,2.218,0,0,1-.393.034Z" transform="translate(1 7)" fill="#f94d1c" stroke="#191919" stroke-width="1"/>
    <path id="https:_www.flaticon.com_free-icon_handshake_3439283_related_id_3439283-5" data-name="https://www.flaticon.com/free-icon/handshake_3439283?related_id=3439283" d="M21.7,26a2.207,2.207,0,0,1-1.078-.287l-2.912-1.64a.531.531,0,0,1-.25-.321.518.518,0,0,1,.055-.4.54.54,0,0,1,.327-.246.553.553,0,0,1,.41.051l2.912,1.64a1.106,1.106,0,0,0,.81.1,1.081,1.081,0,0,0,.652-.48,1.016,1.016,0,0,0,.122-.755,1.036,1.036,0,0,0-.44-.632l-3.721-2.517a.535.535,0,0,1-.147-.148.519.519,0,0,1,.01-.588.536.536,0,0,1,.152-.143.552.552,0,0,1,.6.01l3.721,2.516a2.112,2.112,0,0,1,.812,1.046,2.059,2.059,0,0,1,.02,1.312,2.108,2.108,0,0,1-.779,1.069A2.19,2.19,0,0,1,21.7,26Z" transform="translate(1 7)" fill="#f94d1c" stroke="#191919" stroke-width="1"/>
    <path id="https:_www.flaticon.com_free-icon_handshake_3439283_related_id_3439283-6" data-name="https://www.flaticon.com/free-icon/handshake_3439283?related_id=3439283" d="M15.567,25.684a2.214,2.214,0,0,1-1.241-.377,2.134,2.134,0,0,1-.8-1,2.079,2.079,0,0,1-.075-1.266,2.118,2.118,0,0,1,.677-1.083l1.447-1.238a2.192,2.192,0,0,1,.736-.415,2.227,2.227,0,0,1,1.664.106,2.173,2.173,0,0,1,.675.5,2.116,2.116,0,0,1,.425.719,2.081,2.081,0,0,1-.108,1.625,2.134,2.134,0,0,1-.517.659L17,25.159a2.2,2.2,0,0,1-1.435.525Zm1.445-4.434a1.106,1.106,0,0,0-.722.264l-1.447,1.239a1.073,1.073,0,0,0-.26.331,1.046,1.046,0,0,0-.055.817,1.064,1.064,0,0,0,.214.361,1.105,1.105,0,0,0,.752.362,1.12,1.12,0,0,0,.424-.055,1.1,1.1,0,0,0,.37-.209l1.447-1.24a1.065,1.065,0,0,0,.339-.544,1.045,1.045,0,0,0-.038-.635,1.073,1.073,0,0,0-.4-.5,1.113,1.113,0,0,0-.622-.19Z" transform="translate(1 7)" fill="#f94d1c" stroke="#191919" stroke-width="1"/>
    <path id="https:_www.flaticon.com_free-icon_handshake_3439283_related_id_3439283-7" data-name="https://www.flaticon.com/free-icon/handshake_3439283?related_id=3439283" d="M12.288,24.244c-.048,0-.1,0-.145,0a2.208,2.208,0,0,1-.822-.213,2.161,2.161,0,0,1-.674-.506,2.124,2.124,0,0,1-.432-.72,2.089,2.089,0,0,1,.1-1.635,2.141,2.141,0,0,1,.518-.664l2.417-2.072a2.192,2.192,0,0,1,.736-.415,2.227,2.227,0,0,1,1.664.106,2.173,2.173,0,0,1,.675.5l-.392.367.407-.349a2.115,2.115,0,0,1,.426.719,2.081,2.081,0,0,1-.108,1.625,2.133,2.133,0,0,1-.517.659l-2.419,2.072a2.192,2.192,0,0,1-1.434.528Zm2.4-5.286a1.1,1.1,0,0,0-.721.264l-2.417,2.072a1.081,1.081,0,0,0-.331.535,1.061,1.061,0,0,0,.026.625,1.087,1.087,0,0,0,.374.507,1.127,1.127,0,0,0,.6.222,1.108,1.108,0,0,0,.424-.054,1.09,1.09,0,0,0,.37-.21l2.417-2.072a1.073,1.073,0,0,0,.26-.331,1.046,1.046,0,0,0,.055-.817,1.064,1.064,0,0,0-.214-.361l-.016-.017a1.084,1.084,0,0,0-.338-.253,1.107,1.107,0,0,0-.412-.106l-.075,0Z" transform="translate(1 7)" fill="#f94d1c" stroke="#191919" stroke-width="1"/>
    <path id="https:_www.flaticon.com_free-icon_handshake_3439283_related_id_3439283-8" data-name="https://www.flaticon.com/free-icon/handshake_3439283?related_id=3439283" d="M9.554,22.3c-.048,0-.1,0-.145,0a2.208,2.208,0,0,1-.822-.213,2.161,2.161,0,0,1-.674-.506l-.059-.069a2.092,2.092,0,0,1,.2-3l2.8-2.4a2.191,2.191,0,0,1,.736-.416,2.226,2.226,0,0,1,1.664.106,2.173,2.173,0,0,1,.675.505l.061.068a2.092,2.092,0,0,1-.2,3l-2.8,2.4a2.193,2.193,0,0,1-1.436.529Zm2.737-5.665a1.1,1.1,0,0,0-.721.264l-2.8,2.4a1.053,1.053,0,0,0-.1,1.51l.061.068a1.114,1.114,0,0,0,1.545.1l2.8-2.4a1.073,1.073,0,0,0,.26-.331,1.046,1.046,0,0,0,.055-.817,1.064,1.064,0,0,0-.214-.361L13.116,17a1.085,1.085,0,0,0-.339-.254,1.108,1.108,0,0,0-.413-.107c-.025,0-.049,0-.074,0Z" transform="translate(1 7)" fill="#f94d1c" stroke="#191919" stroke-width="1"/>
    <path id="https:_www.flaticon.com_free-icon_handshake_3439283_related_id_3439283-9" data-name="https://www.flaticon.com/free-icon/handshake_3439283?related_id=3439283" d="M7.2,19.948c-.048,0-.1,0-.145,0a2.225,2.225,0,0,1-1.192-.435A2.144,2.144,0,0,1,5.119,18.5a2.093,2.093,0,0,1-.045-1.242A2.134,2.134,0,0,1,5.742,16.2L7.5,14.7a2.191,2.191,0,0,1,.736-.416,2.226,2.226,0,0,1,1.664.106,2.173,2.173,0,0,1,.675.505l.019.021a2.115,2.115,0,0,1,.426.719,2.081,2.081,0,0,1-.108,1.625,2.133,2.133,0,0,1-.517.659l-1.754,1.5a2.192,2.192,0,0,1-1.436.528Zm1.733-4.721a1.1,1.1,0,0,0-.721.264l-1.754,1.5a1.073,1.073,0,0,0-.26.331,1.046,1.046,0,0,0-.055.817,1.064,1.064,0,0,0,.214.361,1.1,1.1,0,0,0,.339.263,1.127,1.127,0,0,0,.848.065,1.11,1.11,0,0,0,.377-.209l1.754-1.5a1.073,1.073,0,0,0,.26-.331,1.046,1.046,0,0,0,.055-.817,1.064,1.064,0,0,0-.214-.361l-.019-.021a1.084,1.084,0,0,0-.339-.254,1.108,1.108,0,0,0-.413-.107l-.075,0Z" transform="translate(1 7)" fill="#f94d1c" stroke="#191919" stroke-width="1"/>
    <path id="https:_www.flaticon.com_free-icon_handshake_3439283_related_id_3439283-10" data-name="https://www.flaticon.com/free-icon/handshake_3439283?related_id=3439283" d="M6.217,17.026a.547.547,0,0,1-.325-.106L4.041,15.545a.533.533,0,0,1-.14-.155.519.519,0,0,1,.037-.587.545.545,0,0,1,.358-.2.554.554,0,0,1,.211.013.547.547,0,0,1,.19.09l1.851,1.375a.529.529,0,0,1,.192.266.517.517,0,0,1,0,.326.53.53,0,0,1-.2.262.551.551,0,0,1-.318.1Z" transform="translate(1 7)" fill="#f94d1c" stroke="#191919" stroke-width="1"/>
    <path id="https:_www.flaticon.com_free-icon_handshake_3439283_related_id_3439283-11" data-name="https://www.flaticon.com/free-icon/handshake_3439283?related_id=3439283" d="M31.156,17.612a.551.551,0,0,1-.3-.089.532.532,0,0,1-.2-.237.517.517,0,0,1-.031-.306.525.525,0,0,1,.148-.271l3.039-2.969a.551.551,0,0,1,.759.006.52.52,0,0,1,.007.741l-3.039,2.968a.543.543,0,0,1-.176.115.553.553,0,0,1-.207.041Z" transform="translate(1 7)" fill="#f94d1c" stroke="#191919" stroke-width="1"/>
    <path id="https:_www.flaticon.com_free-icon_handshake_3439283_related_id_3439283-12" data-name="https://www.flaticon.com/free-icon/handshake_3439283?related_id=3439283" d="M35.3,16.515a.552.552,0,0,1-.265-.067.536.536,0,0,1-.2-.185l-6.614-10.5a.518.518,0,0,1-.071-.372.527.527,0,0,1,.2-.323L34.9.111a.548.548,0,0,1,.246-.1.554.554,0,0,1,.267.024.543.543,0,0,1,.223.147.525.525,0,0,1,.123.233l3.221,13.723a.517.517,0,0,1-.032.334.534.534,0,0,1-.231.248l-3.158,1.733a.549.549,0,0,1-.264.066ZM29.4,5.609l6.086,9.665,2.351-1.29L34.9,1.454Z" transform="translate(1 7)" fill="#f94d1c" stroke="#191919" stroke-width="1"/>
    <path id="https:_www.flaticon.com_free-icon_handshake_3439283_related_id_3439283-13" data-name="https://www.flaticon.com/free-icon/handshake_3439283?related_id=3439283" d="M3.7,16.7a.552.552,0,0,1-.265-.068L.277,14.9a.534.534,0,0,1-.231-.248.517.517,0,0,1-.032-.334L3.236.6A.525.525,0,0,1,3.359.368.543.543,0,0,1,3.582.221.552.552,0,0,1,4.1.3l6.551,4.953a.527.527,0,0,1,.2.323.518.518,0,0,1-.071.372l-6.614,10.5a.536.536,0,0,1-.2.184A.552.552,0,0,1,3.7,16.7ZM1.161,14.175l2.351,1.29L9.6,5.8,4.1,1.644Z" transform="translate(1 7)" fill="#f94d1c" stroke="#191919" stroke-width="1"/>
  </g>
</svg>
