<svg id="Icon" xmlns="http://www.w3.org/2000/svg" width="40" height="40" viewBox="0 0 40 40">
  <g id="Frame_5" data-name="Frame 5">
    <rect id="Frame_5-2" data-name="Frame 5" width="40" height="40" fill="none"/>
    <path id="Vector" d="M35,22.771v1.741a1.281,1.281,0,0,1-1.278,1.282.249.249,0,0,0-.236.169,7.271,7.271,0,0,1-.369.894.251.251,0,0,0,.048.288,1.286,1.286,0,0,1,0,1.813l-1.227,1.231a1.276,1.276,0,0,1-1.807,0l0,0a.249.249,0,0,0-.285-.046,7.194,7.194,0,0,1-.891.37.249.249,0,0,0-.168.237,1.281,1.281,0,0,1-1.278,1.282H25.772a1.281,1.281,0,0,1-1.278-1.282.249.249,0,0,0-.168-.237,7.19,7.19,0,0,1-.891-.37.249.249,0,0,0-.287.048l0,0a1.276,1.276,0,0,1-1.8,0l-1.227-1.231a1.286,1.286,0,0,1,0-1.812.251.251,0,0,0,.048-.288,7.247,7.247,0,0,1-.369-.894.248.248,0,0,0-.236-.169,1.281,1.281,0,0,1-1.278-1.282V22.771a1.281,1.281,0,0,1,1.278-1.282.249.249,0,0,0,.236-.169,7.271,7.271,0,0,1,.369-.894.251.251,0,0,0-.048-.288,1.286,1.286,0,0,1,0-1.813L21.341,17.1a1.276,1.276,0,0,1,1.8,0l0,0a.249.249,0,0,0,.287.048,7.2,7.2,0,0,1,.891-.37.249.249,0,0,0,.168-.237,1.281,1.281,0,0,1,1.278-1.282h1.735a1.281,1.281,0,0,1,1.278,1.282.249.249,0,0,0,.168.237,7.2,7.2,0,0,1,.891.37.249.249,0,0,0,.285-.046l0,0a1.276,1.276,0,0,1,1.807,0l1.227,1.231a1.286,1.286,0,0,1,0,1.812.251.251,0,0,0-.048.288,7.242,7.242,0,0,1,.369.894.248.248,0,0,0,.236.169A1.281,1.281,0,0,1,35,22.771Zm-1.027,0a.251.251,0,0,0-.251-.251,1.275,1.275,0,0,1-1.209-.869,6.21,6.21,0,0,0-.317-.766,1.283,1.283,0,0,1,.242-1.474.252.252,0,0,0,0-.356l-1.227-1.231a.25.25,0,0,0-.352,0l0,0a1.273,1.273,0,0,1-1.469.242,6.16,6.16,0,0,0-.764-.317,1.279,1.279,0,0,1-.866-1.213.251.251,0,0,0-.251-.251H25.772a.251.251,0,0,0-.251.251,1.278,1.278,0,0,1-.867,1.213,6.174,6.174,0,0,0-.764.317,1.273,1.273,0,0,1-1.466-.239l0,0a.251.251,0,0,0-.354,0l-1.227,1.231a.252.252,0,0,0,0,.355,1.283,1.283,0,0,1,.242,1.474,6.207,6.207,0,0,0-.316.766,1.275,1.275,0,0,1-1.209.869.251.251,0,0,0-.251.251v1.741a.251.251,0,0,0,.251.251,1.275,1.275,0,0,1,1.209.869,6.211,6.211,0,0,0,.316.766,1.283,1.283,0,0,1-.242,1.474.252.252,0,0,0,0,.356l1.227,1.231a.25.25,0,0,0,.354,0l0,0a1.272,1.272,0,0,1,1.465-.238,6.168,6.168,0,0,0,.764.317,1.279,1.279,0,0,1,.866,1.213.251.251,0,0,0,.251.251h1.735a.251.251,0,0,0,.251-.251,1.278,1.278,0,0,1,.866-1.213,6.182,6.182,0,0,0,.764-.317,1.273,1.273,0,0,1,1.469.242l0,0a.25.25,0,0,0,.353,0l1.227-1.231a.252.252,0,0,0,0-.355A1.283,1.283,0,0,1,32.2,26.4a6.213,6.213,0,0,0,.316-.766,1.275,1.275,0,0,1,1.209-.869.251.251,0,0,0,.251-.251Z" transform="translate(3 3)" fill="#191919" stroke="#191919" stroke-width="1"/>
    <path id="Vector-2" data-name="Vector" d="M30.527,23.642a3.888,3.888,0,1,1-3.888-3.9A3.9,3.9,0,0,1,30.527,23.642Zm-1.027,0a2.861,2.861,0,1,0-2.861,2.87,2.868,2.868,0,0,0,2.861-2.87Z" transform="translate(3 3)" fill="#191919" stroke="#191919" stroke-width="1"/>
    <path id="Vector-3" data-name="Vector" d="M20.171,30.848a.516.516,0,0,1-.188.7l-3.606,2.089a2.681,2.681,0,0,1-2.681,0L1.341,26.485A2.7,2.7,0,0,1,0,24.156V9.844a2.706,2.706,0,0,1,1.341-2.33L13.7.359a2.682,2.682,0,0,1,2.681,0L28.732,7.515a2.706,2.706,0,0,1,1.341,2.33v5.25a.513.513,0,1,1-1.027,0V9.844a1.655,1.655,0,0,0-.036-.342L15.55,17.3V32.888a1.645,1.645,0,0,0,.314-.14L19.47,30.66a.513.513,0,0,1,.7.189ZM14.523,17.3,1.063,9.5a1.655,1.655,0,0,0-.036.342V24.156a1.665,1.665,0,0,0,.827,1.437l12.355,7.156a1.64,1.64,0,0,0,.314.14Zm.513-.892L28.5,8.61a1.644,1.644,0,0,0-.278-.2L15.864,1.251a1.655,1.655,0,0,0-1.655,0L1.854,8.407a1.643,1.643,0,0,0-.277.2Z" transform="translate(3 3)" fill="#191919" stroke="#191919" stroke-width="1"/>
  </g>
</svg>
