<svg id="Frame_4" data-name="Frame 4" xmlns="http://www.w3.org/2000/svg" width="40" height="40" viewBox="0 0 40 40">
  <rect id="Frame_4-2" data-name="Frame 4" width="40" height="40" fill="none"/>
  <path id="https:_www.flaticon.com_free-icon_bars_547166_term_finance_page_1_position_8_page_1_position_8_related_id_547166_origin_search" data-name="https://www.flaticon.com/free-icon/bars_547166?term=finance&amp;page=1&amp;position=8&amp;page=1&amp;position=8&amp;related_id=547166&amp;origin=search" d="M35.845,5.213a5.18,5.18,0,0,1-5.1,5.249,5.12,5.12,0,0,1-5.061-5.213,5.081,5.081,0,1,1,10.157-.036Zm-1.117.036a3.98,3.98,0,1,0-7.958-.036,3.98,3.98,0,1,0,7.958.036Z" transform="translate(2 4)" fill="#191919" stroke="#191919" stroke-width="1"/>
  <path id="https:_www.flaticon.com_free-icon_bars_547166_term_finance_page_1_position_8_page_1_position_8_related_id_547166_origin_search-2" data-name="https://www.flaticon.com/free-icon/bars_547166?term=finance&amp;page=1&amp;position=8&amp;page=1&amp;position=8&amp;related_id=547166&amp;origin=search" d="M32.39,6.328a1.14,1.14,0,0,1-.035.36l-.1.324a2.018,2.018,0,0,1-.175.288,1.552,1.552,0,0,1-.209.252,1.22,1.22,0,0,1-.279.18,1.222,1.222,0,0,1-.314.144h-.035v.755H30.4V7.91h-.07a.747.747,0,0,1-.279-.036c-.1-.036-.209-.036-.279-.072a.633.633,0,0,1-.244-.072.454.454,0,0,0-.314-.036l-.1-.036V7.551l.07-.647.035-.252.209.108c.035,0,.07.036.1.036s.07.036.1.036c.07.036.14.036.209.072a.486.486,0,0,0,.209.072,1.473,1.473,0,0,0,.175.036h.454a1.473,1.473,0,0,0,.175-.036c.035-.036.1-.036.14-.072a.484.484,0,0,0,.14-.108l.1-.108a.276.276,0,0,0,.07-.144v-.18a1.6,1.6,0,0,0-.035-.18c-.035-.072-.035-.108-.07-.144l-.1-.108c-.035,0-.07-.036-.1-.072s-.1-.036-.14-.072a.262.262,0,0,0-.14-.072,2.362,2.362,0,0,0-.279-.108,2.048,2.048,0,0,0-.279-.144.869.869,0,0,1-.244-.144.627.627,0,0,1-.244-.18c-.07-.072-.1-.144-.175-.216-.035-.072-.1-.18-.14-.252a.958.958,0,0,1-.1-.288.814.814,0,0,1-.035-.288,1.259,1.259,0,0,1,.035-.36l.1-.324a.731.731,0,0,1,.14-.288,1.552,1.552,0,0,1,.209-.252.627.627,0,0,1,.244-.18,1.222,1.222,0,0,1,.314-.144H30.3V1.834h.838v.683h.035c.07,0,.1.036.175.036a1.472,1.472,0,0,1,.175.036c.07,0,.1.036.14.036s.1.036.14.036l.14.036V2.84l-.07.575-.035.216-.175-.072c-.035,0-.07-.036-.14-.036-.035,0-.1-.036-.14-.036a1.473,1.473,0,0,0-.175-.036.307.307,0,0,0-.175-.036h-.209a.307.307,0,0,0-.175.036.263.263,0,0,0-.175.072l-.1.108c-.035.036-.035.108-.07.144,0,.036-.035.108-.035.144V4.1a.221.221,0,0,0,.035.144.189.189,0,0,0,.07.144l.1.108c.035.036.1.036.14.072s.1.036.14.072a.262.262,0,0,0,.14.072,2.362,2.362,0,0,0,.279.108c.1.036.175.108.279.144a.869.869,0,0,1,.244.144.627.627,0,0,1,.244.18c.07.072.1.144.175.216a.909.909,0,0,1,.14.252.958.958,0,0,1,.1.288.814.814,0,0,1,.035.288Z" transform="translate(2 4)" fill="#191919" stroke="#191919" stroke-width="1"/>
  <path id="https:_www.flaticon.com_free-icon_bars_547166_term_finance_page_1_position_8_page_1_position_8_related_id_547166_origin_search-3" data-name="https://www.flaticon.com/free-icon/bars_547166?term=finance&amp;page=1&amp;position=8&amp;page=1&amp;position=8&amp;related_id=547166&amp;origin=search" d="M28.2,11.973l-5.9,4.818a.612.612,0,0,1-.558.072l-7.33-3.128L6.841,19.308a.552.552,0,0,1-.314.108.5.5,0,0,1-.454-.252.586.586,0,0,1,.14-.791l7.818-5.753a.543.543,0,0,1,.524-.072l7.295,3.128L27.5,11.038a.582.582,0,0,1,.8.108.625.625,0,0,1-.1.827Z" transform="translate(2 4)" fill="#191919" stroke="#191919" stroke-width="1"/>
  <path id="https:_www.flaticon.com_free-icon_bars_547166_term_finance_page_1_position_8_page_1_position_8_related_id_547166_origin_search-4" data-name="https://www.flaticon.com/free-icon/bars_547166?term=finance&amp;page=1&amp;position=8&amp;page=1&amp;position=8&amp;related_id=547166&amp;origin=search" d="M37,31.425a.56.56,0,0,1-.558.575H.558a.576.576,0,0,1,0-1.151H3.176V22.472a.56.56,0,0,1,.558-.575H8.9a.56.56,0,0,1,.558.575v8.378h1.885V19.092a.56.56,0,0,1,.558-.575h5.131a.56.56,0,0,1,.558.575V30.849h1.885V19.955a.56.56,0,0,1,.558-.575H25.2a.56.56,0,0,1,.558.575V30.849h1.885V14.2a.56.56,0,0,1,.558-.575h5.131a.56.56,0,0,1,.558.575V30.849h2.583a.513.513,0,0,1,.524.575ZM8.307,23.047H4.293v7.8H8.307Zm8.167-3.38H12.46V30.849h4.014Zm8.132.863H20.592V30.849h4.014Zm8.167-5.753H28.76V30.849h4.014Z" transform="translate(2 4)" fill="#191919" stroke="#191919" stroke-width="1"/>
</svg>
